# xmcd
#
# Track frame offsets: 
#        150
#        12770
#        25337
#        47650
#        60185
#        74210
#        87765
#        101307
#        112740
#        126202
#        139985
#        154870
#
# Disc length: 2247 seconds
#
# Revision: 0
# Processed by: cddbd v1.5.2PL0 Copyright (c) Steve Scherf et al.
# Submitted via: ExactAudioCopy v1.0b3
#
DISCID=9608c50c
DTITLE=Various Artist - Muddy Waters Classics: His Roots and Favorite
DTITLE=s (No.119)
DYEAR=2013
DGENRE=Blues
TTITLE0=Big Bill Broonzy - I Feel So Good
TTITLE1=Tamba Red - Mean Mistreater Blues
TTITLE2=Son House - Low Down Dirty Dog Blues
TTITLE3=Big Joe Williams - Baby Please Don't Go
TTITLE4=Hambone Willie Newbern - Roll and Tumbles Blues
TTITLE5=Tommy McLennan - Deep Blue Sea Blues
TTITLE6=Robert Lockwood Jr. - Black Spider Blues
TTITLE7=Big Bill Broonzy - Baby I Done Got Wise
TTITLE8=St. Louis Jimmy - Soon Forget You (aka Soon Firgotten)
TTITLE9=Bill "Jazz" Gillum - Take a Little Walk with Me
TTITLE10=Walter Davis - 13 Highway
TTITLE11=Sleepy John Estes - Someday Baby Blues
EXTD=
EXTT0=
EXTT1=
EXTT2=
EXTT3=
EXTT4=
EXTT5=
EXTT6=
EXTT7=
EXTT8=
EXTT9=
EXTT10=
EXTT11=
PLAYORDER=
